<mxfile host="65bd71144e">
    <diagram id="p3tyoOGs-MQi837BSl3-" name="Page-1">
        <mxGraphModel dx="901" dy="396" grid="1" gridSize="10" guides="1" tooltips="1" connect="1" arrows="1" fold="1" page="1" pageScale="1" pageWidth="827" pageHeight="1169" math="0" shadow="0">
            <root>
                <mxCell id="0"/>
                <mxCell id="1" parent="0"/>
                <mxCell id="O45aj7qNq0xtLoh7h64D-1" value="" style="rounded=0;whiteSpace=wrap;html=1;fillColor=#dae8fc;strokeColor=#6c8ebf;fontFamily=Helvetica;" parent="1" vertex="1">
                    <mxGeometry x="70" y="40" width="730" height="980" as="geometry"/>
                </mxCell>
                <mxCell id="O45aj7qNq0xtLoh7h64D-4" value="&lt;font style=&quot;font-size: 32px&quot;&gt;App&lt;/font&gt;" style="text;html=1;strokeColor=none;fillColor=none;align=center;verticalAlign=middle;whiteSpace=wrap;rounded=0;fontFamily=Helvetica;rotation=0;" parent="1" vertex="1">
                    <mxGeometry x="680" y="950" width="90" height="40" as="geometry"/>
                </mxCell>
                <mxCell id="O45aj7qNq0xtLoh7h64D-7" value="" style="rounded=1;whiteSpace=wrap;html=1;fontFamily=Helvetica;fillColor=#a20025;strokeColor=#6F0000;fontColor=#ffffff;" parent="1" vertex="1">
                    <mxGeometry x="90" y="50" width="670" height="60" as="geometry"/>
                </mxCell>
                <mxCell id="O45aj7qNq0xtLoh7h64D-8" value="&lt;span style=&quot;font-size: 32px&quot;&gt;NavBar&lt;/span&gt;" style="text;html=1;strokeColor=none;fillColor=none;align=center;verticalAlign=middle;whiteSpace=wrap;rounded=0;fontFamily=Helvetica;rotation=0;" parent="1" vertex="1">
                    <mxGeometry x="390" y="70" width="70" height="20" as="geometry"/>
                </mxCell>
                <mxCell id="O45aj7qNq0xtLoh7h64D-9" value="CartWidget" style="rounded=1;whiteSpace=wrap;html=1;fontFamily=Helvetica;fillColor=#f0a30a;strokeColor=#BD7000;fontColor=#000000;" parent="1" vertex="1">
                    <mxGeometry x="630" y="65" width="120" height="30" as="geometry"/>
                </mxCell>
                <mxCell id="O45aj7qNq0xtLoh7h64D-10" value="" style="rounded=1;whiteSpace=wrap;html=1;fontFamily=Helvetica;fillColor=#008a00;strokeColor=#005700;fontColor=#ffffff;" parent="1" vertex="1">
                    <mxGeometry x="90" y="140" width="670" height="390" as="geometry"/>
                </mxCell>
                <mxCell id="O45aj7qNq0xtLoh7h64D-11" value="&lt;span style=&quot;font-size: 32px&quot;&gt;ItemListContainer&lt;br&gt;&lt;/span&gt;" style="text;html=1;strokeColor=none;fillColor=none;align=center;verticalAlign=middle;whiteSpace=wrap;rounded=0;fontFamily=Helvetica;rotation=0;" parent="1" vertex="1">
                    <mxGeometry x="540" y="500" width="70" height="20" as="geometry"/>
                </mxCell>
                <mxCell id="O45aj7qNq0xtLoh7h64D-13" value="&lt;font style=&quot;font-size: 24px&quot;&gt;-Posee una promise(o consulta a API) que devuelve un&lt;br&gt;listado de productos&amp;nbsp; y se lo pasa por props a ItemList&lt;br&gt;&lt;/font&gt;" style="text;html=1;strokeColor=none;fillColor=none;align=center;verticalAlign=middle;whiteSpace=wrap;rounded=0;fontFamily=Helvetica;rotation=0;" parent="1" vertex="1">
                    <mxGeometry x="5" y="170" width="840" height="20" as="geometry"/>
                </mxCell>
                <mxCell id="O45aj7qNq0xtLoh7h64D-14" value="" style="rounded=1;whiteSpace=wrap;html=1;fontFamily=Helvetica;" parent="1" vertex="1">
                    <mxGeometry x="120" y="230" width="610" height="250" as="geometry"/>
                </mxCell>
                <mxCell id="O45aj7qNq0xtLoh7h64D-15" value="&lt;span style=&quot;font-size: 32px&quot;&gt;ItemList&lt;br&gt;&lt;/span&gt;" style="text;html=1;strokeColor=none;fillColor=none;align=center;verticalAlign=middle;whiteSpace=wrap;rounded=0;fontFamily=Helvetica;rotation=0;" parent="1" vertex="1">
                    <mxGeometry x="540" y="450" width="70" height="20" as="geometry"/>
                </mxCell>
                <mxCell id="O45aj7qNq0xtLoh7h64D-17" value="&lt;font style=&quot;font-size: 24px&quot;&gt;Recibe por props el listado de productos, los gestiona&lt;br&gt;e Importa a tantos Items como productos existan en el &lt;br&gt;array(haciendo uso de map)&lt;br&gt;&lt;/font&gt;" style="text;html=1;strokeColor=none;fillColor=none;align=center;verticalAlign=middle;whiteSpace=wrap;rounded=0;fontFamily=Helvetica;rotation=0;" parent="1" vertex="1">
                    <mxGeometry x="10" y="260" width="840" height="20" as="geometry"/>
                </mxCell>
                <mxCell id="vAIrCvk0hrgX6M8cHC4I-1" value="" style="group" parent="1" vertex="1" connectable="0">
                    <mxGeometry x="340" y="320" width="160" height="120" as="geometry"/>
                </mxCell>
                <mxCell id="vAIrCvk0hrgX6M8cHC4I-2" value="" style="rounded=1;whiteSpace=wrap;html=1;fontFamily=Helvetica;fillColor=#1ba1e2;strokeColor=#006EAF;fontColor=#ffffff;" parent="vAIrCvk0hrgX6M8cHC4I-1" vertex="1">
                    <mxGeometry width="160" height="120" as="geometry"/>
                </mxCell>
                <mxCell id="vAIrCvk0hrgX6M8cHC4I-3" value="&lt;span style=&quot;font-size: 32px&quot;&gt;Item&lt;br&gt;&lt;/span&gt;" style="text;html=1;strokeColor=none;fillColor=none;align=center;verticalAlign=middle;whiteSpace=wrap;rounded=0;fontFamily=Helvetica;rotation=0;" parent="vAIrCvk0hrgX6M8cHC4I-1" vertex="1">
                    <mxGeometry x="80" y="90" width="70" height="20" as="geometry"/>
                </mxCell>
                <mxCell id="vAIrCvk0hrgX6M8cHC4I-4" value="Recibe un producto por props y muestras sus características" style="text;html=1;strokeColor=none;fillColor=none;align=center;verticalAlign=middle;whiteSpace=wrap;rounded=0;fontFamily=Helvetica;" parent="vAIrCvk0hrgX6M8cHC4I-1" vertex="1">
                    <mxGeometry y="20" width="160" height="70" as="geometry"/>
                </mxCell>
                <mxCell id="vAIrCvk0hrgX6M8cHC4I-5" value="" style="group" parent="1" vertex="1" connectable="0">
                    <mxGeometry x="150" y="320" width="160" height="120" as="geometry"/>
                </mxCell>
                <mxCell id="vAIrCvk0hrgX6M8cHC4I-6" value="" style="rounded=1;whiteSpace=wrap;html=1;fontFamily=Helvetica;fillColor=#1ba1e2;strokeColor=#006EAF;fontColor=#ffffff;" parent="vAIrCvk0hrgX6M8cHC4I-5" vertex="1">
                    <mxGeometry width="160" height="120" as="geometry"/>
                </mxCell>
                <mxCell id="vAIrCvk0hrgX6M8cHC4I-7" value="&lt;span style=&quot;font-size: 32px&quot;&gt;Item&lt;br&gt;&lt;/span&gt;" style="text;html=1;strokeColor=none;fillColor=none;align=center;verticalAlign=middle;whiteSpace=wrap;rounded=0;fontFamily=Helvetica;rotation=0;" parent="vAIrCvk0hrgX6M8cHC4I-5" vertex="1">
                    <mxGeometry x="80" y="90" width="70" height="20" as="geometry"/>
                </mxCell>
                <mxCell id="vAIrCvk0hrgX6M8cHC4I-8" value="Recibe un producto por props y muestras sus características" style="text;html=1;strokeColor=none;fillColor=none;align=center;verticalAlign=middle;whiteSpace=wrap;rounded=0;fontFamily=Helvetica;" parent="vAIrCvk0hrgX6M8cHC4I-5" vertex="1">
                    <mxGeometry y="20" width="160" height="70" as="geometry"/>
                </mxCell>
                <mxCell id="vAIrCvk0hrgX6M8cHC4I-9" value="" style="group" parent="1" vertex="1" connectable="0">
                    <mxGeometry x="530" y="320" width="160" height="120" as="geometry"/>
                </mxCell>
                <mxCell id="vAIrCvk0hrgX6M8cHC4I-10" value="" style="rounded=1;whiteSpace=wrap;html=1;fontFamily=Helvetica;fillColor=#1ba1e2;strokeColor=#006EAF;fontColor=#ffffff;" parent="vAIrCvk0hrgX6M8cHC4I-9" vertex="1">
                    <mxGeometry width="160" height="120" as="geometry"/>
                </mxCell>
                <mxCell id="vAIrCvk0hrgX6M8cHC4I-11" value="&lt;span style=&quot;font-size: 32px&quot;&gt;Item&lt;br&gt;&lt;/span&gt;" style="text;html=1;strokeColor=none;fillColor=none;align=center;verticalAlign=middle;whiteSpace=wrap;rounded=0;fontFamily=Helvetica;rotation=0;" parent="vAIrCvk0hrgX6M8cHC4I-9" vertex="1">
                    <mxGeometry x="80" y="90" width="70" height="20" as="geometry"/>
                </mxCell>
                <mxCell id="vAIrCvk0hrgX6M8cHC4I-12" value="Recibe un producto por props y muestras sus características" style="text;html=1;strokeColor=none;fillColor=none;align=center;verticalAlign=middle;whiteSpace=wrap;rounded=0;fontFamily=Helvetica;" parent="vAIrCvk0hrgX6M8cHC4I-9" vertex="1">
                    <mxGeometry y="20" width="160" height="70" as="geometry"/>
                </mxCell>
                <mxCell id="XGH4oo1_CMkHBhXzJdva-1" value="" style="rounded=1;whiteSpace=wrap;html=1;fontFamily=Helvetica;fillColor=#008a00;strokeColor=#005700;fontColor=#ffffff;" parent="1" vertex="1">
                    <mxGeometry x="105" y="560" width="670" height="390" as="geometry"/>
                </mxCell>
                <mxCell id="XGH4oo1_CMkHBhXzJdva-2" value="&lt;span style=&quot;font-size: 32px&quot;&gt;ItemDetailContainer&lt;br&gt;&lt;/span&gt;" style="text;html=1;strokeColor=none;fillColor=none;align=center;verticalAlign=middle;whiteSpace=wrap;rounded=0;fontFamily=Helvetica;rotation=0;" parent="1" vertex="1">
                    <mxGeometry x="555" y="920" width="70" height="20" as="geometry"/>
                </mxCell>
                <mxCell id="XGH4oo1_CMkHBhXzJdva-3" value="&lt;font style=&quot;font-size: 24px&quot;&gt;-Posee una promise(o consulta a API) que devuelve un&lt;br&gt;objeto(data del producto)&amp;nbsp; y se lo pasa por props a ItemDetail&lt;br&gt;&lt;/font&gt;" style="text;html=1;strokeColor=none;fillColor=none;align=center;verticalAlign=middle;whiteSpace=wrap;rounded=0;fontFamily=Helvetica;rotation=0;" parent="1" vertex="1">
                    <mxGeometry x="20" y="590" width="840" height="20" as="geometry"/>
                </mxCell>
                <mxCell id="XGH4oo1_CMkHBhXzJdva-4" value="" style="rounded=1;whiteSpace=wrap;html=1;fontFamily=Helvetica;" parent="1" vertex="1">
                    <mxGeometry x="135" y="650" width="610" height="250" as="geometry"/>
                </mxCell>
                <mxCell id="XGH4oo1_CMkHBhXzJdva-5" value="&lt;span style=&quot;font-size: 32px&quot;&gt;ItemDetail&lt;br&gt;&lt;/span&gt;" style="text;html=1;strokeColor=none;fillColor=none;align=center;verticalAlign=middle;whiteSpace=wrap;rounded=0;fontFamily=Helvetica;rotation=0;" parent="1" vertex="1">
                    <mxGeometry x="555" y="870" width="70" height="20" as="geometry"/>
                </mxCell>
                <mxCell id="XGH4oo1_CMkHBhXzJdva-6" value="&lt;font style=&quot;font-size: 24px&quot;&gt;Recibe por props un producto (objeto), y muestra &lt;br&gt;sus detalles&lt;br&gt;&lt;/font&gt;" style="text;html=1;strokeColor=none;fillColor=none;align=center;verticalAlign=middle;whiteSpace=wrap;rounded=0;fontFamily=Helvetica;rotation=0;" parent="1" vertex="1">
                    <mxGeometry x="40" y="765" width="840" height="20" as="geometry"/>
                </mxCell>
                <mxCell id="XGH4oo1_CMkHBhXzJdva-19" style="edgeStyle=orthogonalEdgeStyle;rounded=0;orthogonalLoop=1;jettySize=auto;html=1;exitX=0.5;exitY=1;exitDx=0;exitDy=0;" parent="1" source="O45aj7qNq0xtLoh7h64D-1" target="O45aj7qNq0xtLoh7h64D-1" edge="1">
                    <mxGeometry relative="1" as="geometry"/>
                </mxCell>
            </root>
        </mxGraphModel>
    </diagram>
</mxfile>